<svg version="1.1" xmlns="http://www.w3.org/2000/svg" xmlns:xlink="http://www.w3.org/1999/xlink" width="704.97802734375" height="630"><defs/><g><g transform="translate(-30,-14) scale(1,1)"><rect fill="#C0C0C0" stroke="none" x="447" y="31" width="214.53076171875" height="57" opacity="0.2"/></g><g transform="translate(-30,-14) scale(1,1)"><rect fill="#ffffff" stroke="none" x="440" y="24" width="214.53076171875" height="57"/></g><g transform="translate(-30,-14) scale(1,1)"><path fill="none" stroke="#000000" d="M 440 24 L 654.53076171875 24 L 654.53076171875 81 L 440 81 L 440 24 Z Z" stroke-miterlimit="10"/></g><g transform="translate(-30,-14) scale(1,1)"><path fill="none" stroke="#000000" d="M 440 49 L 654.53076171875 49" stroke-miterlimit="10"/></g><g transform="translate(-30,-14) scale(1,1)"><path fill="none" stroke="#000000" d="M 440 59 L 654.53076171875 59" stroke-miterlimit="10"/></g><g transform="translate(-30,-14) scale(1,1)"><g><path fill="none" stroke="none"/><text fill="#000000" stroke="none" font-family="Arial" font-size="13px" font-style="normal" font-weight="bold" text-decoration="none" x="509.331787109375" y="43.5">BrightControl</text></g></g><g transform="translate(-30,-14) scale(1,1)"><g><path fill="none" stroke="none"/><text fill="#000000" stroke="none" font-family="Arial" font-size="13px" font-style="normal" font-weight="normal" text-decoration="none" x="445" y="76.5">+stdevNormalization(img: Mat): Mat</text><path fill="none" stroke="#000000" d="M 445 76.5 L 650.53076171875 76.5" stroke-miterlimit="10"/></g></g><g transform="translate(-30,-14) scale(1,1)"><rect fill="#C0C0C0" stroke="none" x="47" y="263" width="272.376953125" height="72" opacity="0.2"/></g><g transform="translate(-30,-14) scale(1,1)"><rect fill="#ffffff" stroke="none" x="40" y="256" width="272.376953125" height="72"/></g><g transform="translate(-30,-14) scale(1,1)"><path fill="none" stroke="#000000" d="M 40 256 L 312.376953125 256 L 312.376953125 328 L 40 328 L 40 256 Z Z" stroke-miterlimit="10"/></g><g transform="translate(-30,-14) scale(1,1)"><path fill="none" stroke="#000000" d="M 40 281 L 312.376953125 281" stroke-miterlimit="10"/></g><g transform="translate(-30,-14) scale(1,1)"><path fill="none" stroke="#000000" d="M 40 291 L 312.376953125 291" stroke-miterlimit="10"/></g><g transform="translate(-30,-14) scale(1,1)"><g><path fill="none" stroke="none"/><text fill="#000000" stroke="none" font-family="Arial" font-size="13px" font-style="normal" font-weight="bold" text-decoration="none" x="161.014404296875" y="275.5">Delta</text></g></g><g transform="translate(-30,-14) scale(1,1)"><g><path fill="none" stroke="none"/><text fill="#000000" stroke="none" font-family="Arial" font-size="13px" font-style="italic" font-weight="normal" text-decoration="none" x="45" y="308.5">+get(a: Mat, b: Mat): Point2i</text></g></g><g transform="translate(-30,-14) scale(1,1)"><g><path fill="none" stroke="none"/><text fill="#000000" stroke="none" font-family="Arial" font-size="13px" font-style="normal" font-weight="normal" text-decoration="none" x="45" y="323.5">+getErr(a: Mat, b: Mat, offset: Point2i): double</text></g></g><g transform="translate(-30,-14) scale(1,1)"><rect fill="#C0C0C0" stroke="none" x="143" y="511" width="293.9970703125" height="130" opacity="0.2"/></g><g transform="translate(-30,-14) scale(1,1)"><rect fill="#ffffff" stroke="none" x="136" y="504" width="293.9970703125" height="130"/></g><g transform="translate(-30,-14) scale(1,1)"><path fill="none" stroke="#000000" d="M 136 504 L 429.9970703125 504 L 429.9970703125 634 L 136 634 L 136 504 Z Z" stroke-miterlimit="10"/></g><g transform="translate(-30,-14) scale(1,1)"><path fill="none" stroke="#000000" d="M 136 529 L 429.9970703125 529" stroke-miterlimit="10"/></g><g transform="translate(-30,-14) scale(1,1)"><path fill="none" stroke="#000000" d="M 136 567 L 429.9970703125 567" stroke-miterlimit="10"/></g><g transform="translate(-30,-14) scale(1,1)"><g><path fill="none" stroke="none"/><text fill="#000000" stroke="none" font-family="Arial" font-size="13px" font-style="normal" font-weight="bold" text-decoration="none" x="233.150390625" y="523.5">DeltaFromBorder</text></g></g><g transform="translate(-30,-14) scale(1,1)"><g><path fill="none" stroke="none"/><text fill="#000000" stroke="none" font-family="Arial" font-size="13px" font-style="normal" font-weight="normal" text-decoration="none" x="141" y="546.5">-window: int</text></g></g><g transform="translate(-30,-14) scale(1,1)"><g><path fill="none" stroke="none"/><text fill="#000000" stroke="none" font-family="Arial" font-size="13px" font-style="normal" font-weight="normal" text-decoration="none" x="141" y="561.5">-mCreator: Mask*</text></g></g><g transform="translate(-30,-14) scale(1,1)"><g><path fill="none" stroke="none"/><text fill="#000000" stroke="none" font-family="Arial" font-size="13px" font-style="normal" font-weight="normal" text-decoration="none" x="141" y="584.5">+DeltaFromBorder()</text></g></g><g transform="translate(-30,-14) scale(1,1)"><g><path fill="none" stroke="none"/><text fill="#000000" stroke="none" font-family="Arial" font-size="13px" font-style="normal" font-weight="normal" text-decoration="none" x="141" y="599.5">+DeltaFromBorder(mCreator: Mask*, window: int)</text></g></g><g transform="translate(-30,-14) scale(1,1)"><g><path fill="none" stroke="none"/><text fill="#000000" stroke="none" font-family="Arial" font-size="13px" font-style="normal" font-weight="normal" text-decoration="none" x="141" y="614.5">+get(a: Mat, b: Mat): Point2i</text></g></g><g transform="translate(-30,-14) scale(1,1)"><g><path fill="none" stroke="none"/><text fill="#000000" stroke="none" font-family="Arial" font-size="13px" font-style="normal" font-weight="normal" text-decoration="none" x="141" y="629.5">-count(a: Mat, n: int): int</text></g></g><g transform="translate(-30,-14) scale(1,1)"><path fill="none" stroke="#000000" d="M 136 577 L 56 577 L 56 328" stroke-miterlimit="10"/></g><g transform="translate(-30,-14) scale(1,1)"><path fill="#FFFFFF" stroke="none" d="M 64.41903551203198 348.3253497152483 L 56 328 L 47.580964487968025 348.3253497152483"/></g><g transform="translate(-30,-14) scale(1,1)"><path fill="none" stroke="#000000" d="M 64.41903551203198 348.3253497152483 L 56 328 L 47.580964487968025 348.3253497152483 L 64.41903551203198 348.3253497152483" stroke-miterlimit="10"/></g><g transform="translate(-30,-14) scale(1,1)"><rect fill="#C0C0C0" stroke="none" x="143" y="367" width="293.9970703125" height="130" opacity="0.2"/></g><g transform="translate(-30,-14) scale(1,1)"><rect fill="#ffffff" stroke="none" x="136" y="360" width="293.9970703125" height="130"/></g><g transform="translate(-30,-14) scale(1,1)"><path fill="none" stroke="#000000" d="M 136 360 L 429.9970703125 360 L 429.9970703125 490 L 136 490 L 136 360 Z Z" stroke-miterlimit="10"/></g><g transform="translate(-30,-14) scale(1,1)"><path fill="none" stroke="#000000" d="M 136 385 L 429.9970703125 385" stroke-miterlimit="10"/></g><g transform="translate(-30,-14) scale(1,1)"><path fill="none" stroke="#000000" d="M 136 423 L 429.9970703125 423" stroke-miterlimit="10"/></g><g transform="translate(-30,-14) scale(1,1)"><g><path fill="none" stroke="none"/><text fill="#000000" stroke="none" font-family="Arial" font-size="13px" font-style="normal" font-weight="bold" text-decoration="none" x="233.150390625" y="379.5">DeltaFromBorder</text></g></g><g transform="translate(-30,-14) scale(1,1)"><g><path fill="none" stroke="none"/><text fill="#000000" stroke="none" font-family="Arial" font-size="13px" font-style="normal" font-weight="normal" text-decoration="none" x="141" y="402.5">-window: int</text></g></g><g transform="translate(-30,-14) scale(1,1)"><g><path fill="none" stroke="none"/><text fill="#000000" stroke="none" font-family="Arial" font-size="13px" font-style="normal" font-weight="normal" text-decoration="none" x="141" y="417.5">-mCreator: Mask*</text></g></g><g transform="translate(-30,-14) scale(1,1)"><g><path fill="none" stroke="none"/><text fill="#000000" stroke="none" font-family="Arial" font-size="13px" font-style="normal" font-weight="normal" text-decoration="none" x="141" y="440.5">+DeltaFromBorder()</text></g></g><g transform="translate(-30,-14) scale(1,1)"><g><path fill="none" stroke="none"/><text fill="#000000" stroke="none" font-family="Arial" font-size="13px" font-style="normal" font-weight="normal" text-decoration="none" x="141" y="455.5">+DeltaFromBorder(mCreator: Mask*, window: int)</text></g></g><g transform="translate(-30,-14) scale(1,1)"><g><path fill="none" stroke="none"/><text fill="#000000" stroke="none" font-family="Arial" font-size="13px" font-style="normal" font-weight="normal" text-decoration="none" x="141" y="470.5">+get(a: Mat, b: Mat): Point2i</text></g></g><g transform="translate(-30,-14) scale(1,1)"><g><path fill="none" stroke="none"/><text fill="#000000" stroke="none" font-family="Arial" font-size="13px" font-style="normal" font-weight="normal" text-decoration="none" x="141" y="485.5">-count(a: Mat, n: int): int</text></g></g><g transform="translate(-30,-14) scale(1,1)"><path fill="none" stroke="#000000" d="M 136 456 L 112 456 L 112 328" stroke-miterlimit="10"/></g><g transform="translate(-30,-14) scale(1,1)"><path fill="#FFFFFF" stroke="none" d="M 120.41903551203198 348.3253497152483 L 112 328 L 103.58096448796803 348.3253497152483"/></g><g transform="translate(-30,-14) scale(1,1)"><path fill="none" stroke="#000000" d="M 120.41903551203198 348.3253497152483 L 112 328 L 103.58096448796803 348.3253497152483 L 120.41903551203198 348.3253497152483" stroke-miterlimit="10"/></g><g transform="translate(-30,-14) scale(1,1)"><rect fill="#C0C0C0" stroke="none" x="503" y="420" width="228.97802734375" height="175" opacity="0.2"/></g><g transform="translate(-30,-14) scale(1,1)"><rect fill="#ffffff" stroke="none" x="496" y="413" width="228.97802734375" height="175"/></g><g transform="translate(-30,-14) scale(1,1)"><path fill="none" stroke="#000000" d="M 496 413 L 724.97802734375 413 L 724.97802734375 588 L 496 588 L 496 413 Z Z" stroke-miterlimit="10"/></g><g transform="translate(-30,-14) scale(1,1)"><path fill="none" stroke="#000000" d="M 496 438 L 724.97802734375 438" stroke-miterlimit="10"/></g><g transform="translate(-30,-14) scale(1,1)"><path fill="none" stroke="#000000" d="M 496 521 L 724.97802734375 521" stroke-miterlimit="10"/></g><g transform="translate(-30,-14) scale(1,1)"><g><path fill="none" stroke="none"/><text fill="#000000" stroke="none" font-family="Arial" font-size="13px" font-style="normal" font-weight="bold" text-decoration="none" x="594.95947265625" y="432.5">Mask</text></g></g><g transform="translate(-30,-14) scale(1,1)"><g><path fill="none" stroke="none"/><text fill="#000000" stroke="none" font-family="Arial" font-size="13px" font-style="normal" font-weight="normal" text-decoration="none" x="501" y="455.5">-type: int</text></g></g><g transform="translate(-30,-14) scale(1,1)"><g><path fill="none" stroke="none"/><text fill="#000000" stroke="none" font-family="Arial" font-size="13px" font-style="normal" font-weight="normal" text-decoration="none" x="501" y="470.5">-x: Mat</text></g></g><g transform="translate(-30,-14) scale(1,1)"><g><path fill="none" stroke="none"/><text fill="#000000" stroke="none" font-family="Arial" font-size="13px" font-style="normal" font-weight="normal" text-decoration="none" x="501" y="485.5">-y: Mat</text></g></g><g transform="translate(-30,-14) scale(1,1)"><g><path fill="none" stroke="none"/><text fill="#000000" stroke="none" font-family="Arial" font-size="13px" font-style="normal" font-weight="normal" text-decoration="none" x="501" y="500.5">-C: int</text></g></g><g transform="translate(-30,-14) scale(1,1)"><g><path fill="none" stroke="none"/><text fill="#000000" stroke="none" font-family="Arial" font-size="13px" font-style="normal" font-weight="normal" text-decoration="none" x="501" y="515.5">-blockSize: int</text></g></g><g transform="translate(-30,-14) scale(1,1)"><g><path fill="none" stroke="none"/><text fill="#000000" stroke="none" font-family="Arial" font-size="13px" font-style="normal" font-weight="normal" text-decoration="none" x="501" y="538.5">+Mask()</text></g></g><g transform="translate(-30,-14) scale(1,1)"><g><path fill="none" stroke="none"/><text fill="#000000" stroke="none" font-family="Arial" font-size="13px" font-style="normal" font-weight="normal" text-decoration="none" x="501" y="553.5">+Mask(type: int)</text></g></g><g transform="translate(-30,-14) scale(1,1)"><g><path fill="none" stroke="none"/><text fill="#000000" stroke="none" font-family="Arial" font-size="13px" font-style="normal" font-weight="normal" text-decoration="none" x="501" y="568.5">+get(img: Mat, rows: int, cols: int): Mat</text></g></g><g transform="translate(-30,-14) scale(1,1)"><g><path fill="none" stroke="none"/><text fill="#000000" stroke="none" font-family="Arial" font-size="13px" font-style="normal" font-weight="normal" text-decoration="none" x="501" y="583.5">+setParametrs(C: int, blockSize: int)</text></g></g><g transform="translate(-30,-14) scale(1,1)"><path fill="none" stroke="#000000" d="M 496 560 L 430 560" stroke-miterlimit="10"/></g><g transform="translate(-30,-14) scale(1,1)"><path fill="#000000" stroke="none" d="M 440.16267485762415 555.790482243984 L 430 560 L 440.16267485762415 564.209517756016 L 452 560"/></g><g transform="translate(-30,-14) scale(1,1)"><path fill="none" stroke="#000000" d="M 440.16267485762415 555.790482243984 L 430 560 L 440.16267485762415 564.209517756016 L 452 560 L 440.16267485762415 555.790482243984" stroke-miterlimit="10"/></g><g transform="translate(-30,-14) scale(1,1)"><g><path fill="none" stroke="none"/><text fill="#000000" stroke="none" font-family="Arial" font-size="13px" font-style="normal" font-weight="normal" text-decoration="none" x="470.5" y="553.5">1</text></g></g><g transform="translate(-30,-14) scale(1,1)"><g><path fill="none" stroke="none"/><text fill="#000000" stroke="none" font-family="Arial" font-size="13px" font-style="normal" font-weight="normal" text-decoration="none" x="447.5" y="553.5">1</text></g></g><g transform="translate(-30,-14) scale(1,1)"><path fill="none" stroke="#000000" d="M 496 456 L 430 456" stroke-miterlimit="10"/></g><g transform="translate(-30,-14) scale(1,1)"><path fill="#000000" stroke="none" d="M 440.16267485762415 451.790482243984 L 430 456 L 440.16267485762415 460.209517756016 L 452 456"/></g><g transform="translate(-30,-14) scale(1,1)"><path fill="none" stroke="#000000" d="M 440.16267485762415 451.790482243984 L 430 456 L 440.16267485762415 460.209517756016 L 452 456 L 440.16267485762415 451.790482243984" stroke-miterlimit="10"/></g><g transform="translate(-30,-14) scale(1,1)"><g><path fill="none" stroke="none"/><text fill="#000000" stroke="none" font-family="Arial" font-size="13px" font-style="normal" font-weight="normal" text-decoration="none" x="470.5" y="449.5">1</text></g></g><g transform="translate(-30,-14) scale(1,1)"><g><path fill="none" stroke="none"/><text fill="#000000" stroke="none" font-family="Arial" font-size="13px" font-style="normal" font-weight="normal" text-decoration="none" x="447.5" y="449.5">1</text></g></g><g transform="translate(-30,-14) scale(1,1)"><rect fill="#C0C0C0" stroke="none" x="47" y="31" width="367.7568359375" height="192" opacity="0.2"/></g><g transform="translate(-30,-14) scale(1,1)"><rect fill="#ffffff" stroke="none" x="40" y="24" width="367.7568359375" height="192"/></g><g transform="translate(-30,-14) scale(1,1)"><path fill="none" stroke="#000000" d="M 40 24 L 407.7568359375 24 L 407.7568359375 216 L 40 216 L 40 24 Z Z" stroke-miterlimit="10"/></g><g transform="translate(-30,-14) scale(1,1)"><path fill="none" stroke="#000000" d="M 40 49 L 407.7568359375 49" stroke-miterlimit="10"/></g><g transform="translate(-30,-14) scale(1,1)"><path fill="none" stroke="#000000" d="M 40 59 L 407.7568359375 59" stroke-miterlimit="10"/></g><g transform="translate(-30,-14) scale(1,1)"><g><path fill="none" stroke="none"/><text fill="#000000" stroke="none" font-family="Arial" font-size="13px" font-style="normal" font-weight="bold" text-decoration="none" x="197.50390625" y="43.5">Main.cpp</text></g></g><g transform="translate(-30,-14) scale(1,1)"><g><path fill="none" stroke="none"/><text fill="#000000" stroke="none" font-family="Arial" font-size="13px" font-style="normal" font-weight="normal" text-decoration="none" x="45" y="76.5">+p(x: int): int</text><path fill="none" stroke="#000000" d="M 45 76.5 L 116.88720703125 76.5" stroke-miterlimit="10"/></g></g><g transform="translate(-30,-14) scale(1,1)"><g><path fill="none" stroke="none"/><text fill="#000000" stroke="none" font-family="Arial" font-size="13px" font-style="normal" font-weight="normal" text-decoration="none" x="45" y="91.5">+n(x: int): int</text><path fill="none" stroke="#000000" d="M 45 91.5 L 116.88720703125 91.5" stroke-miterlimit="10"/></g></g><g transform="translate(-30,-14) scale(1,1)"><g><path fill="none" stroke="none"/><text fill="#000000" stroke="none" font-family="Arial" font-size="13px" font-style="normal" font-weight="normal" text-decoration="none" x="45" y="106.5">+getFrame(capture: VideoCapture*, video: vector&lt;Mat&gt;*): Mat</text><path fill="none" stroke="#000000" d="M 45 106.5 L 403.7568359375 106.5" stroke-miterlimit="10"/></g></g><g transform="translate(-30,-14) scale(1,1)"><g><path fill="none" stroke="none"/><text fill="#000000" stroke="none" font-family="Arial" font-size="13px" font-style="normal" font-weight="normal" text-decoration="none" x="45" y="121.5">+makeMap(...): Mat</text><path fill="none" stroke="#000000" d="M 45 121.5 L 158.05810546875 121.5" stroke-miterlimit="10"/></g></g><g transform="translate(-30,-14) scale(1,1)"><g><path fill="none" stroke="none"/><text fill="#000000" stroke="none" font-family="Arial" font-size="13px" font-style="normal" font-weight="normal" text-decoration="none" x="45" y="136.5">+run(...)</text><path fill="none" stroke="#000000" d="M 45 136.5 L 90.87451171875 136.5" stroke-miterlimit="10"/></g></g><g transform="translate(-30,-14) scale(1,1)"><g><path fill="none" stroke="none"/><text fill="#000000" stroke="none" font-family="Arial" font-size="13px" font-style="normal" font-weight="normal" text-decoration="none" x="45" y="151.5">+makeVideo(...): vector&lt;Mat&gt;</text><path fill="none" stroke="#000000" d="M 45 151.5 L 216.6025390625 151.5" stroke-miterlimit="10"/></g></g><g transform="translate(-30,-14) scale(1,1)"><g><path fill="none" stroke="none"/><text fill="#000000" stroke="none" font-family="Arial" font-size="13px" font-style="normal" font-weight="normal" text-decoration="none" x="45" y="166.5">+printErr(...)</text><path fill="none" stroke="#000000" d="M 45 166.5 L 114.70361328125 166.5" stroke-miterlimit="10"/></g></g><g transform="translate(-30,-14) scale(1,1)"><g><path fill="none" stroke="none"/><text fill="#000000" stroke="none" font-family="Arial" font-size="13px" font-style="normal" font-weight="normal" text-decoration="none" x="45" y="181.5">+textGUI()</text><path fill="none" stroke="#000000" d="M 45 181.5 L 105.3154296875 181.5" stroke-miterlimit="10"/></g></g><g transform="translate(-30,-14) scale(1,1)"><g><path fill="none" stroke="none"/><text fill="#000000" stroke="none" font-family="Arial" font-size="13px" font-style="normal" font-weight="normal" text-decoration="none" x="45" y="196.5">+testParam()</text><path fill="none" stroke="#000000" d="M 45 196.5 L 120.49267578125 196.5" stroke-miterlimit="10"/></g></g><g transform="translate(-30,-14) scale(1,1)"><g><path fill="none" stroke="none"/><text fill="#000000" stroke="none" font-family="Arial" font-size="13px" font-style="normal" font-weight="normal" text-decoration="none" x="45" y="211.5">+main()</text><path fill="none" stroke="#000000" d="M 45 211.5 L 89.42724609375 211.5" stroke-miterlimit="10"/></g></g><g transform="translate(-30,-14) scale(1,1)"><rect fill="#C0C0C0" stroke="none" x="447" y="111" width="209.85888671875" height="162" opacity="0.2"/></g><g transform="translate(-30,-14) scale(1,1)"><rect fill="#ffffff" stroke="none" x="440" y="104" width="209.85888671875" height="162"/></g><g transform="translate(-30,-14) scale(1,1)"><path fill="none" stroke="#000000" d="M 440 104 L 649.85888671875 104 L 649.85888671875 266 L 440 266 L 440 104 Z Z" stroke-miterlimit="10"/></g><g transform="translate(-30,-14) scale(1,1)"><path fill="none" stroke="#000000" d="M 440 129 L 649.85888671875 129" stroke-miterlimit="10"/></g><g transform="translate(-30,-14) scale(1,1)"><path fill="none" stroke="#000000" d="M 440 257 L 649.85888671875 257" stroke-miterlimit="10"/></g><g transform="translate(-30,-14) scale(1,1)"><g><path fill="none" stroke="none"/><text fill="#000000" stroke="none" font-family="Arial" font-size="13px" font-style="normal" font-weight="bold" text-decoration="none" x="522.528564453125" y="123.5">Const.h</text></g></g><g transform="translate(-30,-14) scale(1,1)"><g><path fill="none" stroke="none"/><text fill="#000000" stroke="none" font-family="Arial" font-size="13px" font-style="normal" font-weight="normal" text-decoration="none" x="445" y="146.5">+USEFUL_SIZE = 12</text></g></g><g transform="translate(-30,-14) scale(1,1)"><g><path fill="none" stroke="none"/><text fill="#000000" stroke="none" font-family="Arial" font-size="13px" font-style="normal" font-weight="normal" text-decoration="none" x="445" y="161.5">+IMG_WIDTH = 1023</text></g></g><g transform="translate(-30,-14) scale(1,1)"><g><path fill="none" stroke="none"/><text fill="#000000" stroke="none" font-family="Arial" font-size="13px" font-style="normal" font-weight="normal" text-decoration="none" x="445" y="176.5">+IMG_HEIGHT = 45</text></g></g><g transform="translate(-30,-14) scale(1,1)"><g><path fill="none" stroke="none"/><text fill="#000000" stroke="none" font-family="Arial" font-size="13px" font-style="normal" font-weight="normal" text-decoration="none" x="445" y="191.5">+FULL = 0</text></g></g><g transform="translate(-30,-14) scale(1,1)"><g><path fill="none" stroke="none"/><text fill="#000000" stroke="none" font-family="Arial" font-size="13px" font-style="normal" font-weight="normal" text-decoration="none" x="445" y="206.5">+ROBERTS = 1</text></g></g><g transform="translate(-30,-14) scale(1,1)"><g><path fill="none" stroke="none"/><text fill="#000000" stroke="none" font-family="Arial" font-size="13px" font-style="normal" font-weight="normal" text-decoration="none" x="445" y="221.5">+SOBEL = 2</text></g></g><g transform="translate(-30,-14) scale(1,1)"><g><path fill="none" stroke="none"/><text fill="#000000" stroke="none" font-family="Arial" font-size="13px" font-style="normal" font-weight="normal" text-decoration="none" x="445" y="236.5">+PREVIT = 3</text></g></g><g transform="translate(-30,-14) scale(1,1)"><g><path fill="none" stroke="none"/><text fill="#000000" stroke="none" font-family="Arial" font-size="13px" font-style="normal" font-weight="normal" text-decoration="none" x="445" y="251.5">+MAX_OFFSET: Point2i = (20, 10)</text></g></g><g transform="translate(-30,-14) scale(1,1)"><path fill="none" stroke="#000000" d="M 208 256 L 208 216" stroke-miterlimit="10"/></g><g transform="translate(-30,-14) scale(1,1)"><path fill="none" stroke="#000000" d="M 212.209517756016 226.16267485762415 L 208 216 L 203.790482243984 226.16267485762415" stroke-miterlimit="10"/></g><g transform="translate(-30,-14) scale(1,1)"><path fill="none" stroke="#000000" d="M 440 52 L 408 52" stroke-miterlimit="10"/></g><g transform="translate(-30,-14) scale(1,1)"><path fill="none" stroke="#000000" d="M 418.16267485762415 47.790482243984016 L 408 52 L 418.16267485762415 56.209517756015984" stroke-miterlimit="10"/></g><g transform="translate(-30,-14) scale(1,1)"><path fill="none" stroke="#000000" d="M 440 176 L 408 176" stroke-miterlimit="10"/></g><g transform="translate(-30,-14) scale(1,1)"><path fill="none" stroke="#000000" d="M 418.16267485762415 171.790482243984 L 408 176 L 418.16267485762415 180.209517756016" stroke-miterlimit="10"/></g></g></svg>